<svg width="15" height="14" viewBox="0 0 15 14" fill="none" xmlns="http://www.w3.org/2000/svg">
<g clip-path="url(#clip0_3101_42586)">
<path d="M7.66699 14C3.801 14 0.666992 10.866 0.666992 7C0.666992 3.134 3.801 0 7.66699 0C11.533 0 14.667 3.134 14.667 7C14.667 10.866 11.533 14 7.66699 14ZM7.66699 12.6C10.7598 12.6 13.267 10.0928 13.267 7C13.267 3.9072 10.7598 1.4 7.66699 1.4C4.5742 1.4 2.06699 3.9072 2.06699 7C2.06699 10.0928 4.5742 12.6 7.66699 12.6ZM6.96699 3.5H8.36699V4.9H6.96699V3.5ZM6.96699 6.3H8.36699V10.5H6.96699V6.3Z" fill="rgba(146, 151, 150, 1)"/>
</g>
<defs>
<clipPath id="clip0_3101_42586">
<rect width="14" height="14" fill="white" transform="translate(0.666992)"/>
</clipPath>
</defs>
</svg>
